<svg width="23" height="22" viewBox="0 0 23 22" fill="none" xmlns="http://www.w3.org/2000/svg">
<path d="M22.9505 3.86158C22.9573 3.35008 22.8608 2.84248 22.6667 2.36917C22.4727 1.89586 22.1851 1.46659 21.8212 1.10708C21.0801 0.396642 20.0933 0 19.0667 0C18.0401 0 17.0532 0.396642 16.3122 1.10708L7.22232 10.1969H6.91932C5.35952 10.2388 3.87535 10.8781 2.77329 11.9827C1.67122 13.0873 1.03541 14.573 0.997144 16.1329L0.914509 20.6227C0.909774 20.8086 0.94272 20.9935 1.01136 21.1663C1.08 21.3391 1.18292 21.4962 1.31391 21.6281C1.58203 21.8698 1.93083 22.0024 2.29176 22L6.7816 21.9173C8.3415 21.8791 9.82714 21.2433 10.9318 20.1412C12.0364 19.0391 12.6757 17.555 12.7175 15.9952V15.6784L21.8212 6.58853C22.183 6.2332 22.4695 5.80858 22.6635 5.34005C22.8575 4.87152 22.9552 4.36868 22.9505 3.86158ZM6.76782 19.1628L3.66901 19.2455V16.1742C3.68346 15.3071 4.03808 14.4805 4.6564 13.8725C5.27473 13.2644 6.10723 12.9238 6.97441 12.9239C7.36795 12.9238 7.75755 13.0022 8.12044 13.1544C8.48334 13.3067 8.81224 13.5297 9.08794 13.8106C9.36363 14.0914 9.58058 14.4243 9.72611 14.79C9.87164 15.1556 9.94282 15.5466 9.9355 15.9401C9.91524 16.779 9.57664 17.5788 8.98839 18.1773C8.40015 18.7758 7.60628 19.1281 6.76782 19.1628ZM19.8792 4.63284L11.7948 12.7173C11.5832 12.4024 11.3435 12.1074 11.0786 11.8359C10.8107 11.567 10.5152 11.3269 10.1972 11.1197L18.2816 3.049C18.4968 2.84357 18.7829 2.72895 19.0804 2.72895C19.378 2.72895 19.664 2.84357 19.8792 3.049C19.9839 3.15623 20.0659 3.28344 20.1203 3.42305C20.1748 3.56266 20.2005 3.7118 20.196 3.86158C20.1965 4.00465 20.1688 4.14641 20.1144 4.27876C20.0601 4.4111 19.9802 4.53142 19.8792 4.63284Z" fill="#F0F0F0"/>
</svg>
