<svg width="29" height="24" viewBox="0 0 29 24" fill="none" xmlns="http://www.w3.org/2000/svg">
<path d="M28.0585 10.3212V9.56269C28.0585 8.56788 27.46 7.64767 26.525 7.27461C21.9743 5.4342 18.0346 2.38756 15.9525 0.596891C15.0299 -0.198964 13.6585 -0.198964 12.7359 0.596891C10.6414 2.38756 6.71409 5.42176 2.16345 7.27461C1.70748 7.45893 1.31752 7.77559 1.04409 8.18355C0.770669 8.59152 0.626389 9.07198 0.629947 9.56269V10.3212C0.629947 12.1741 1.78942 13.7409 3.42267 14.3751C3.38527 16.4643 3.22319 18.7896 2.77436 20.9534C2.4502 22.5202 3.59721 24 5.20552 24H23.4953C25.1037 24 26.2507 22.5202 25.9265 20.9534C25.4777 18.7772 25.3031 16.4518 25.2782 14.3751C26.899 13.7409 28.0585 12.1741 28.0585 10.3212ZM14.3442 2.49948C16.0024 3.9171 18.6954 6.03109 21.9618 7.8342H6.72656C9.99304 6.03109 12.686 3.9171 14.3442 2.49948ZM15.591 10.3212H19.3312C19.3312 11.3534 18.4959 12.1865 17.4611 12.1865C16.4263 12.1865 15.591 11.3534 15.591 10.3212ZM11.2273 12.1865C10.1925 12.1865 9.3572 11.3534 9.3572 10.3212H13.0975C13.0975 11.3534 12.2621 12.1865 11.2273 12.1865ZM6.8637 10.3212C6.8637 11.3534 6.02838 12.1865 4.99357 12.1865C3.95877 12.1865 3.12345 11.3534 3.12345 10.3212H6.8637ZM5.19305 21.513C5.67929 19.2 5.8663 16.7627 5.9037 14.5741C6.75149 14.3876 7.51201 13.9648 8.09798 13.3554C8.40967 13.6663 8.77123 13.915 9.15772 14.1264C9.03304 16.4518 8.83356 19.1005 8.50941 21.5005H5.19305V21.513ZM11.0403 21.513C11.3395 19.2373 11.5265 16.8124 11.6388 14.6363C12.686 14.5368 13.646 14.0767 14.3442 13.3679C15.0424 14.0767 15.9899 14.5368 17.0497 14.6363C17.1743 16.8124 17.3489 19.2373 17.6481 21.513H11.0403ZM20.1665 21.513C19.8299 19.1005 19.6304 16.4518 19.5182 14.1389C19.9047 13.9275 20.2787 13.6788 20.578 13.3679C21.1639 13.9648 21.9244 14.4 22.7722 14.5865C22.8096 16.7751 22.9966 19.2124 23.4829 21.5254H20.1665V21.513ZM23.6948 12.1865C22.66 12.1865 21.8247 11.3534 21.8247 10.3212H25.565C25.565 11.3534 24.7296 12.1865 23.6948 12.1865Z" fill="#F0F0F0"/>
</svg>
