<svg width="22" height="26" viewBox="0 0 22 26" fill="none" xmlns="http://www.w3.org/2000/svg">
<path d="M11.0296 1.30112L11.5418 0.105153C11.3799 0.0357745 11.2057 0 11.0296 0C10.8535 0 10.6792 0.0357745 10.5174 0.105153L11.0296 1.30112ZM11.0296 24.7005L10.3848 25.8288C10.5812 25.941 10.8034 26 11.0296 26C11.2557 26 11.478 25.941 11.6744 25.8288L11.0296 24.7005ZM5.86093 21.7456L5.21485 22.8753L5.85963 21.7456H5.86093ZM10.5174 0.106454L2.20544 3.66705L3.22981 6.05898L11.5418 2.49709L10.5174 0.106454ZM0.629883 6.05768V14.9754H3.22981V6.05768H0.629883ZM5.21485 22.8753L10.3848 25.8288L11.6744 23.5721L6.50442 20.6173L5.21485 22.8753ZM11.6744 25.8288L16.8443 22.8753L15.5548 20.6173L10.3848 23.5721L11.6744 25.8288ZM21.4293 14.9741V6.05898H18.8294V14.9767H21.4293V14.9741ZM19.8537 3.66835L11.5418 0.106454L10.5174 2.49579L18.8294 6.05898L19.8537 3.66835ZM21.4293 6.05898C21.4292 5.55025 21.2799 5.05272 20.9999 4.62801C20.7198 4.2033 20.3213 3.86879 19.8537 3.66835L18.8294 6.05898H21.4293ZM16.8443 22.8753C18.2374 22.0793 19.3952 20.9303 20.2004 19.5425C21.0057 18.1547 21.4296 16.5786 21.4293 14.9741H18.8294C18.8292 16.12 18.5261 17.2455 17.9508 18.2366C17.3755 19.2276 16.5485 20.0489 15.5535 20.6173L16.8443 22.8753ZM0.629883 14.9741C0.629811 16.5784 1.05386 18.1542 1.85905 19.5417C2.66425 20.9293 3.82196 22.0794 5.21485 22.8753L6.50442 20.6173C5.51003 20.049 4.68346 19.228 4.10842 18.2375C3.53338 17.2469 3.23028 16.1221 3.22981 14.9767H0.629883V14.9741ZM2.20544 3.66705C1.73765 3.86758 1.33901 4.20229 1.05894 4.62725C0.77887 5.05222 0.629685 5.55003 0.629883 6.05898H3.22981L2.20544 3.66965V3.66705Z" fill="#F0F0F0"/>
</svg>
