<svg width="23" height="22" viewBox="0 0 23 22" fill="none" xmlns="http://www.w3.org/2000/svg">
<path d="M14.3639 11.9998C15.534 12.2379 16.7497 12.0927 17.8308 11.5856C18.9119 11.0786 19.8009 10.2367 20.366 9.18477C20.9311 8.13283 21.1422 6.92683 20.968 5.74549C20.7939 4.56415 20.2438 3.47036 19.3992 2.62622C18.5546 1.78208 17.4606 1.23251 16.2791 1.05898C15.0977 0.885454 13.8918 1.09719 12.8402 1.66281C11.7885 2.22843 10.9471 3.11783 10.4406 4.1992C9.93413 5.28056 9.78953 6.49634 10.0282 7.66634M14.3639 11.9998L10.0282 7.66745L1.6803 17.2054C1.26331 17.622 1.02888 18.1871 1.02856 18.7765C1.02841 19.0683 1.08574 19.3573 1.19728 19.627C1.30882 19.8967 1.47238 20.1418 1.67864 20.3483C1.88489 20.5547 2.12979 20.7186 2.39935 20.8304C2.66892 20.9422 2.95787 20.9998 3.24971 21C3.83911 21.0003 4.40449 20.7665 4.82148 20.3499L14.3639 11.9998Z" stroke="#F0F0F0" stroke-width="2" stroke-linecap="round" stroke-linejoin="round"/>
</svg>
